<svg xmlns="http://www.w3.org/2000/svg" viewBox="0 0 94.29 101.51"><defs><style>.cls-1{fill:none;stroke:#fff;stroke-linecap:round;stroke-linejoin:round;stroke-width:2px;}</style></defs><title>Ativo 1</title><g id="Camada_2" data-name="Camada 2"><g id="Camada_1-2" data-name="Camada 1"><path class="cls-1" d="M34.13,86.32C10.47,93.41,10.47,74.48,1,72.12m66.26,28.39V82.2a15.92,15.92,0,0,0-4.45-12.35c14.86-1.66,30.48-7.29,30.48-33.13A25.76,25.76,0,0,0,86.19,19a24,24,0,0,0-.43-17.84s-5.58-1.66-18.5,7a63.32,63.32,0,0,0-33.13,0c-12.92-8.66-18.51-7-18.51-7A24,24,0,0,0,15.2,19,25.72,25.72,0,0,0,8.1,36.86C8.1,62.51,23.72,68.14,38.58,70A15.93,15.93,0,0,0,34.13,82.2v18.31"/></g></g></svg>