<svg xmlns="http://www.w3.org/2000/svg" viewBox="0 0 100.4 96.06"><defs><style>.cls-1{fill:none;stroke:#fff;stroke-miterlimit:10;stroke-width:2px;}</style></defs><title>linkedin</title><g id="Camada_2" data-name="Camada 2"><g id="Camada_1-2" data-name="Camada 1"><g id="IEbfqx.tif"><path class="cls-1" d="M35.05,95.06c0-3.72,0-7.44.05-11.17,0-3.1,0-6.19,0-9.29,0-5.5,0-11,0-16.51,0-4,0-7.94,0-11.92s0-8.06,0-12.09c0-.65,0-1.29-.05-1.93v-.49c.28-.07,20.67-.1,21.1,0v8.73l.08,0a3.14,3.14,0,0,0,.23-.33,25.23,25.23,0,0,1,4-4.78,19.48,19.48,0,0,1,8.68-4.54,26,26,0,0,1,7.24-.64,25.55,25.55,0,0,1,7.09,1.23A21,21,0,0,1,96,42.11a30.34,30.34,0,0,1,2.67,7.94,41.91,41.91,0,0,1,.59,4.34c0,.28,0,.59,0,.87a1.91,1.91,0,0,0,.08.44V95H78.34V61A27.4,27.4,0,0,0,78,56.19a15,15,0,0,0-1.47-4.47,8.62,8.62,0,0,0-4.36-4.16,10.72,10.72,0,0,0-3.62-.82,12,12,0,0,0-3.88.36,10.81,10.81,0,0,0-5.83,3.95,12.3,12.3,0,0,0-2.26,4.44,16.21,16.21,0,0,0-.36,3.67V95C49.12,95.06,42.09,95.06,35.05,95.06Z"/><path class="cls-1" d="M2.31,95.06V31.64H23.42V94.57c0,.16,0,.34,0,.49Z"/><path class="cls-1" d="M14.22,1l1.06.15a11.17,11.17,0,0,1,5.6,2.39,10.36,10.36,0,0,1,3.59,5.8,10.94,10.94,0,0,1-.56,7.07,10.53,10.53,0,0,1-6.4,5.8,13.74,13.74,0,0,1-4.44.74,12.85,12.85,0,0,1-6-1.26A10.31,10.31,0,0,1,1.23,14L1,13V10.94l.23-1A10.35,10.35,0,0,1,5,3.54a11.75,11.75,0,0,1,5.72-2.38l1-.16C12.58,1,13.4,1,14.22,1Z"/></g></g></g></svg>