<svg xmlns="http://www.w3.org/2000/svg" viewBox="0 0 91 91"><defs><style>.cls-1{fill:none;stroke:#fff;stroke-linecap:round;stroke-linejoin:round;stroke-width:2px;}</style></defs><title>whatsapp</title><g id="Camada_2" data-name="Camada 2"><g id="Camada_1-2" data-name="Camada 1"><path class="cls-1" d="M21.77,83.41C19.13,81.76,6.27,91.32,4.3,89c-2-2,6.59-15.49,4.94-17.8A43.51,43.51,0,0,1,1,45.5,44.5,44.5,0,1,1,45.5,90a41.66,41.66,0,0,1-9.23-1"/><path class="cls-1" d="M36.27,23.09l4,9.88a1.21,1.21,0,0,1-.66,1.65c-1.65,1-4,3.3-1.32,6.92,3.29,4.62,12.19,16.16,19.45,8.57a1.45,1.45,0,0,1,1.64-.32L69.89,54.4a1.59,1.59,0,0,1,.66,2C68.24,61,59.34,73.19,37.26,54.07c-22.42-19.45-7.91-29-3-31.31C35,21.77,35.94,22.1,36.27,23.09Z"/></g></g></svg>